<?xml version="1.0" encoding="utf-8"?>
<svg viewBox="0 0 500 500" xmlns="http://www.w3.org/2000/svg">
  <g id="Layer_1-2" transform="matrix(1, 0, 0, 1, 29.060041860640695, -103.07431946805593)">
    <rect class="cls-7" width="510.558" height="499.656" style="stroke-width: 0px; fill: rgb(149, 51, 51);" x="-37.737" y="103.986"/>
    <ellipse class="cls-3" cx="182.392" cy="266.525" rx="9.666" ry="9.89" style="fill: rgb(26, 26, 26); stroke: rgb(0, 0, 0); stroke-miterlimit: 10; stroke-width: 8px;"/>
    <path class="cls-4" d="M 352.538 519.328 L 352.168 520.188 C 306.403 536.528 264.292 540.828 220.284 540.828 C 176.275 540.828 127.135 537.388 82.319 520.188 L 82.363 396.143 C 127.18 413.343 174.387 416.783 220.328 416.783 C 266.269 416.783 306.446 412.483 352.211 396.143 L 352.581 395.283 L 352.538 519.328 Z" style="fill: rgb(115, 99, 87); stroke: rgb(0, 0, 0); stroke-miterlimit: 10; stroke-width: 8px;"/>
    <path class="cls-5" d="M 352.168 574.282 L 352.168 520.188 C 306.403 536.528 264.292 540.828 220.284 540.828 C 176.275 540.828 127.135 537.388 82.319 520.188 L 82.319 576.716" style="fill: rgb(83, 71, 65); stroke: rgb(0, 0, 0); stroke-miterlimit: 10; stroke-width: 8px;"/>
    <ellipse class="cls-3" cx="250.935" cy="266.525" rx="9.666" ry="9.89" style="fill: rgb(26, 26, 26); stroke: rgb(0, 0, 0); stroke-miterlimit: 10; stroke-width: 8px;"/>
    <path class="cls-4" d="M 38.715 510.333 L 81.827 510.333 L 83.092 395.954 C 74.63 395.231 62.221 395.231 58.048 396.384 C 52.028 398.043 46.124 399.669 41.352 404.984 C 36.536 410.358 36.519 415.734 36.519 420.894 L 35.64 510.333 L 38.715 510.333 Z" style="fill: rgb(115, 99, 87); stroke: rgb(0, 0, 0); stroke-miterlimit: 10; stroke-width: 8px;"/>
    <path class="cls-2" d="M 82.214 510.333 L 82.214 544.733 C 79.217 545.274 61.739 547.218 49.26 539.573 C 38.804 533.165 35.64 529.683 35.64 510.763 L 82.214 510.333 Z" style="fill: rgb(199, 178, 153); stroke: rgb(0, 0, 0); stroke-miterlimit: 10; stroke-width: 8px;"/>
    <path class="cls-4" d="M 214.466 601.922 C 210.951 576.122 204.801 564.942 178.437 564.942 C 130.976 564.942 65.957 569.242 42.23 599.342 L 214.466 601.922 Z" style="fill: rgb(115, 99, 87); stroke: rgb(0, 0, 0); stroke-miterlimit: 10; stroke-width: 8px;"/>
    <path class="cls-4" d="M 222.376 601.922 C 225.891 576.122 231.805 565.802 258.167 565.802 C 305.629 565.802 370.648 570.102 394.375 600.202 L 222.376 601.922 Z" style="fill: rgb(115, 99, 87); stroke: rgb(0, 0, 0); stroke-miterlimit: 10; stroke-width: 8px;"/>
    <path class="cls-5" d="M 178.639 564.736 C 205.003 564.736 211.153 575.916 214.669 601.716 L 222.376 601.922 C 225.891 576.122 231.998 565.166 258.361 565.166" style="fill: rgb(83, 71, 65); stroke: rgb(0, 0, 0); stroke-miterlimit: 10; stroke-width: 8px;"/>
    <path class="cls-4" d="M 396.316 510.617 L 353.205 510.617 C 353.205 510.617 351.939 396.237 351.939 396.237 C 360.402 395.515 372.81 395.515 376.984 396.667 C 383.003 398.327 388.909 399.953 393.681 405.268 C 398.496 410.642 398.514 416.017 398.514 421.178 L 399.393 510.617 L 396.316 510.617 Z" style="fill: rgb(115, 99, 87); stroke: rgb(0, 0, 0); stroke-miterlimit: 10; stroke-width: 8px;"/>
    <path class="cls-2" d="M 352.818 510.617 L 352.818 545.016 C 355.815 545.558 373.294 547.502 385.772 539.857 C 396.229 533.449 399.393 529.966 399.393 511.047 L 352.818 510.617 Z" style="fill: rgb(199, 178, 153); stroke: rgb(0, 0, 0); stroke-miterlimit: 10; stroke-width: 8px;"/>
  </g>
  <g id="Group_23" data-name="Group 23" transform="matrix(5.779376983642579, 0, 0, 5.600216865539552, -4448.624089727165, -5161.8521276988395)" style="">
    <rect id="Rectangle_9" data-name="Rectangle 9" width="49" height="33.111" transform="translate(788.357 943.388)" fill="#d1d3d4" stroke="#231f20" stroke-linecap="round" stroke-linejoin="round" stroke-width="4"/>
    <rect id="Rectangle_10" data-name="Rectangle 10" width="30.667" height="11" transform="translate(797.191 965.5)" fill="#ffffff" stroke-linecap="round" stroke-linejoin="round" stroke-width="4" stroke="#231f20"/>
    <circle id="Ellipse_8" data-name="Ellipse 8" cx="4" cy="4" r="4" transform="translate(797.191 951.167)" fill="#ffffff" stroke="#231f20" stroke-linecap="round" stroke-linejoin="round" stroke-width="4"/>
    <circle id="Ellipse_9" data-name="Ellipse 9" cx="4" cy="4" r="4" transform="matrix(1, 0, 0, 1, 820.191, 951.167)" fill="#ffffff" stroke-linecap="round" stroke-linejoin="round" stroke-width="4" stroke="#231f20" style="transform-box: fill-box; transform-origin: 178.777% 114.169%;"/>
    <path id="Path_59" data-name="Path 59" d="M815.441,934h-4.75l-1,9.389h6.75Z" fill="#ffffff" stroke="#231f20" stroke-linecap="round" stroke-linejoin="round" stroke-width="4"/>
    <circle id="Ellipse_10" data-name="Ellipse 10" cx="5.25" cy="5.25" r="5.25" transform="translate(807.691 925.5)" fill="#ffffff" stroke="#231f20" stroke-linecap="round" stroke-linejoin="round" stroke-width="4"/>
  </g>
</svg>